<?xml version="1.0" encoding="UTF-8"?>
<mxfile host="app.diagrams.net" agent="Mozilla/5.0 (Macintosh; Intel Mac OS X 10_15_7) AppleWebKit/537.36 (KHTML, like Gecko) Chrome/139.0.0.0 Safari/537.36" version="28.1.0">
  <diagram id="hyPCTah6T0YD5taRLeX1" name="Container Diagram MVP">
    <mxGraphModel dx="3529" dy="2733" grid="1" gridSize="10" guides="1" tooltips="1" connect="1" arrows="1" fold="1" page="1" pageScale="1" pageWidth="827" pageHeight="1169" math="0" shadow="0">
      <root>
        <mxCell id="0" />
        <mxCell id="1" parent="0" />
        <mxCell id="OFR8qNW4da_diQQjfglN-1" value="Диаграмма контейнеров - MVP открытия депозитов" style="text;html=1;align=center;verticalAlign=middle;whiteSpace=wrap;rounded=0;fontSize=24;fontStyle=1;" vertex="1" parent="1">
          <mxGeometry x="-430" y="-430" width="1200" height="60" as="geometry" />
        </mxCell>
        <mxCell id="OFR8qNW4da_diQQjfglN-2" value="Интернет-банк (ASP.NET MVC 4.5 + MS SQL)" style="text;html=1;align=center;verticalAlign=middle;whiteSpace=wrap;rounded=0;fontSize=18;fontStyle=1;fillColor=#d5e8d4;strokeColor=#82b366;" vertex="1" parent="1">
          <mxGeometry x="-450" y="-300" width="400" height="40" as="geometry" />
        </mxCell>
        <mxCell id="OFR8qNW4da_diQQjfglN-3" value="Web UI&lt;div&gt;(ASP.NET MVC 4.5)&lt;/div&gt;&lt;div&gt;Пользовательский интерфейс&lt;/div&gt;" style="rounded=1;whiteSpace=wrap;html=1;fillColor=#d5e8d4;strokeColor=#82b366;fontSize=14;" vertex="1" parent="1">
          <mxGeometry x="-520" y="-200" width="180" height="80" as="geometry" />
        </mxCell>
        <mxCell id="OFR8qNW4da_diQQjfglN-4" value="API Gateway&lt;div&gt;(ASP.NET Web API)&lt;/div&gt;&lt;div&gt;Аутентификация, роутинг&lt;/div&gt;" style="rounded=1;whiteSpace=wrap;html=1;fillColor=#d5e8d4;strokeColor=#82b366;fontSize=14;" vertex="1" parent="1">
          <mxGeometry x="-190" y="-200" width="180" height="80" as="geometry" />
        </mxCell>
        <mxCell id="OFR8qNW4da_diQQjfglN-5" value="Deposits Service&lt;div&gt;(ASP.NET Core)&lt;/div&gt;&lt;div&gt;Бизнес-логика депозитов&lt;/div&gt;" style="rounded=1;whiteSpace=wrap;html=1;fillColor=#d5e8d4;strokeColor=#82b366;fontSize=14;" vertex="1" parent="1">
          <mxGeometry x="-190" y="-20" width="180" height="80" as="geometry" />
        </mxCell>
        <mxCell id="OFR8qNW4da_diQQjfglN-6" value="MS SQL Database&lt;div&gt;(SQL Server)&lt;/div&gt;&lt;div&gt;Данные интернет-банка&lt;/div&gt;" style="rounded=1;whiteSpace=wrap;html=1;fillColor=#d5e8d4;strokeColor=#82b366;fontSize=14;" vertex="1" parent="1">
          <mxGeometry x="-520" y="-20" width="180" height="80" as="geometry" />
        </mxCell>
        <mxCell id="OFR8qNW4da_diQQjfglN-7" value="АБС (Delphi + Oracle + PL-SQL)" style="text;html=1;align=center;verticalAlign=middle;whiteSpace=wrap;rounded=0;fontSize=18;fontStyle=1;fillColor=#ffe6cc;strokeColor=#d79b00;" vertex="1" parent="1">
          <mxGeometry x="250" y="-300" width="400" height="40" as="geometry" />
        </mxCell>
        <mxCell id="OFR8qNW4da_diQQjfglN-8" value="Desktop Client&lt;div&gt;(Delphi)&lt;/div&gt;&lt;div&gt;Клиентское приложение&lt;/div&gt;" style="rounded=1;whiteSpace=wrap;html=1;fillColor=#ffe6cc;strokeColor=#d79b00;fontSize=14;" vertex="1" parent="1">
          <mxGeometry x="500" y="-90" width="180" height="80" as="geometry" />
        </mxCell>
        <mxCell id="OFR8qNW4da_diQQjfglN-10" value="Rates Module&lt;div&gt;(PL-SQL)&lt;/div&gt;&lt;div&gt;Расчет ставок&lt;/div&gt;" style="rounded=1;whiteSpace=wrap;html=1;fillColor=#ffe6cc;strokeColor=#d79b00;fontSize=14;" vertex="1" parent="1">
          <mxGeometry x="500" y="-210" width="180" height="80" as="geometry" />
        </mxCell>
        <mxCell id="OFR8qNW4da_diQQjfglN-11" value="Oracle Database&lt;div&gt;(Oracle 19c)&lt;/div&gt;&lt;div&gt;Основная БД АБС&lt;/div&gt;" style="rounded=1;whiteSpace=wrap;html=1;fillColor=#ffe6cc;strokeColor=#d79b00;fontSize=14;" vertex="1" parent="1">
          <mxGeometry x="230" y="-20" width="180" height="80" as="geometry" />
        </mxCell>
        <mxCell id="OFR8qNW4da_diQQjfglN-12" value="Система кол-центра (React.js + Java Spring Boot + PostgreSQL)" style="text;html=1;align=center;verticalAlign=middle;whiteSpace=wrap;rounded=0;fontSize=18;fontStyle=1;fillColor=#f8cecc;strokeColor=#b85450;" vertex="1" parent="1">
          <mxGeometry x="-470" y="210" width="400" height="40" as="geometry" />
        </mxCell>
        <mxCell id="OFR8qNW4da_diQQjfglN-13" value="Call Center UI&lt;div&gt;(React.js)&lt;/div&gt;&lt;div&gt;Интерфейс операторов&lt;/div&gt;" style="rounded=1;whiteSpace=wrap;html=1;fillColor=#f8cecc;strokeColor=#b85450;fontSize=14;" vertex="1" parent="1">
          <mxGeometry x="-510" y="300" width="180" height="80" as="geometry" />
        </mxCell>
        <mxCell id="OFR8qNW4da_diQQjfglN-14" value="Call Center API&lt;div&gt;(Spring Boot)&lt;/div&gt;&lt;div&gt;API для кол-центра&lt;/div&gt;" style="rounded=1;whiteSpace=wrap;html=1;fillColor=#f8cecc;strokeColor=#b85450;fontSize=14;" vertex="1" parent="1">
          <mxGeometry x="-190" y="290" width="180" height="80" as="geometry" />
        </mxCell>
        <mxCell id="OFR8qNW4da_diQQjfglN-15" value="PostgreSQL&lt;div&gt;(PostgreSQL 13)&lt;/div&gt;&lt;div&gt;БД кол-центра&lt;/div&gt;" style="rounded=1;whiteSpace=wrap;html=1;fillColor=#f8cecc;strokeColor=#b85450;fontSize=14;" vertex="1" parent="1">
          <mxGeometry x="-190" y="460" width="180" height="80" as="geometry" />
        </mxCell>
        <mxCell id="OFR8qNW4da_diQQjfglN-16" value="Внешние системы" style="text;html=1;align=center;verticalAlign=middle;whiteSpace=wrap;rounded=0;fontSize=18;fontStyle=1;fillColor=#e1d5e7;strokeColor=#9673a6;" vertex="1" parent="1">
          <mxGeometry x="230" y="210" width="400" height="40" as="geometry" />
        </mxCell>
        <mxCell id="OFR8qNW4da_diQQjfglN-17" value="СМС-шлюз&lt;div&gt;(внешний)&lt;/div&gt;&lt;div&gt;Интеграция с оператором&lt;/div&gt;" style="rounded=1;whiteSpace=wrap;html=1;fillColor=#e1d5e7;strokeColor=#9673a6;fontSize=14;" vertex="1" parent="1">
          <mxGeometry x="450" y="310" width="180" height="80" as="geometry" />
        </mxCell>
        <mxCell id="OFR8qNW4da_diQQjfglN-18" value="Партнерский кол-центр&lt;div&gt;(внешний)&lt;/div&gt;&lt;div&gt;SFTP интеграция&lt;/div&gt;" style="rounded=1;whiteSpace=wrap;html=1;fillColor=#e1d5e7;strokeColor=#9673a6;fontSize=14;" vertex="1" parent="1">
          <mxGeometry x="240" y="310" width="180" height="80" as="geometry" />
        </mxCell>
        <mxCell id="OFR8qNW4da_diQQjfglN-19" value="HTTP/HTTPS" style="edgeStyle=orthogonalEdgeStyle;rounded=0;orthogonalLoop=1;jettySize=auto;html=1;fontSize=12;" edge="1" parent="1" source="OFR8qNW4da_diQQjfglN-3" target="OFR8qNW4da_diQQjfglN-4">
          <mxGeometry relative="1" as="geometry" />
        </mxCell>
        <mxCell id="OFR8qNW4da_diQQjfglN-20" value="HTTP/HTTPS" style="edgeStyle=orthogonalEdgeStyle;rounded=0;orthogonalLoop=1;jettySize=auto;html=1;fontSize=12;" edge="1" parent="1" source="OFR8qNW4da_diQQjfglN-4" target="OFR8qNW4da_diQQjfglN-5">
          <mxGeometry relative="1" as="geometry" />
        </mxCell>
        <mxCell id="OFR8qNW4da_diQQjfglN-21" value="ADO.NET" style="edgeStyle=orthogonalEdgeStyle;rounded=0;orthogonalLoop=1;jettySize=auto;html=1;fontSize=12;" edge="1" parent="1" source="OFR8qNW4da_diQQjfglN-5" target="OFR8qNW4da_diQQjfglN-6">
          <mxGeometry relative="1" as="geometry" />
        </mxCell>
        <mxCell id="OFR8qNW4da_diQQjfglN-22" value="HTTP/HTTPS" style="edgeStyle=orthogonalEdgeStyle;rounded=0;orthogonalLoop=1;jettySize=auto;html=1;fontSize=12;entryX=0.75;entryY=1;entryDx=0;entryDy=0;" edge="1" parent="1" source="OFR8qNW4da_diQQjfglN-8" target="OFR8qNW4da_diQQjfglN-9">
          <mxGeometry relative="1" as="geometry" />
        </mxCell>
        <mxCell id="OFR8qNW4da_diQQjfglN-23" value="PL-SQL" style="edgeStyle=orthogonalEdgeStyle;rounded=0;orthogonalLoop=1;jettySize=auto;html=1;fontSize=12;exitX=1;exitY=0.25;exitDx=0;exitDy=0;entryX=0;entryY=0.25;entryDx=0;entryDy=0;" edge="1" parent="1" source="OFR8qNW4da_diQQjfglN-9" target="OFR8qNW4da_diQQjfglN-10">
          <mxGeometry relative="1" as="geometry" />
        </mxCell>
        <mxCell id="OFR8qNW4da_diQQjfglN-24" value="SQL" style="edgeStyle=orthogonalEdgeStyle;rounded=0;orthogonalLoop=1;jettySize=auto;html=1;fontSize=12;" edge="1" parent="1" source="OFR8qNW4da_diQQjfglN-9" target="OFR8qNW4da_diQQjfglN-11">
          <mxGeometry relative="1" as="geometry" />
        </mxCell>
        <mxCell id="OFR8qNW4da_diQQjfglN-25" value="HTTP/HTTPS" style="edgeStyle=orthogonalEdgeStyle;rounded=0;orthogonalLoop=1;jettySize=auto;html=1;fontSize=12;" edge="1" parent="1" source="OFR8qNW4da_diQQjfglN-13" target="OFR8qNW4da_diQQjfglN-14">
          <mxGeometry relative="1" as="geometry" />
        </mxCell>
        <mxCell id="OFR8qNW4da_diQQjfglN-26" value="JDBC" style="edgeStyle=orthogonalEdgeStyle;rounded=0;orthogonalLoop=1;jettySize=auto;html=1;fontSize=12;" edge="1" parent="1" source="OFR8qNW4da_diQQjfglN-14" target="OFR8qNW4da_diQQjfglN-15">
          <mxGeometry relative="1" as="geometry" />
        </mxCell>
        <mxCell id="OFR8qNW4da_diQQjfglN-27" value="REST API&lt;div&gt;(HTTPS)&lt;/div&gt;" style="edgeStyle=orthogonalEdgeStyle;rounded=0;orthogonalLoop=1;jettySize=auto;html=1;fontSize=12;strokeColor=#d73027;strokeWidth=2;" edge="1" parent="1" source="OFR8qNW4da_diQQjfglN-4" target="OFR8qNW4da_diQQjfglN-9">
          <mxGeometry relative="1" as="geometry">
            <Array as="points">
              <mxPoint y="-160" />
              <mxPoint y="-160" />
            </Array>
          </mxGeometry>
        </mxCell>
        <mxCell id="OFR8qNW4da_diQQjfglN-28" value="REST API&lt;div&gt;(HTTPS)&lt;/div&gt;" style="edgeStyle=orthogonalEdgeStyle;rounded=0;orthogonalLoop=1;jettySize=auto;html=1;fontSize=12;strokeColor=#4575b4;strokeWidth=2;entryX=0.75;entryY=0;entryDx=0;entryDy=0;exitX=1;exitY=0.5;exitDx=0;exitDy=0;" edge="1" parent="1" source="OFR8qNW4da_diQQjfglN-5" target="OFR8qNW4da_diQQjfglN-14">
          <mxGeometry relative="1" as="geometry">
            <Array as="points">
              <mxPoint x="20" y="20" />
              <mxPoint x="20" y="230" />
              <mxPoint x="-55" y="230" />
            </Array>
            <mxPoint x="199.99999999999955" y="40" as="sourcePoint" />
            <mxPoint x="180" y="540" as="targetPoint" />
          </mxGeometry>
        </mxCell>
        <mxCell id="OFR8qNW4da_diQQjfglN-29" value="HTTP API&lt;div&gt;(HTTPS)&lt;/div&gt;" style="edgeStyle=orthogonalEdgeStyle;rounded=0;orthogonalLoop=1;jettySize=auto;html=1;fontSize=12;strokeColor=#1a9850;strokeWidth=2;exitX=0.5;exitY=0;exitDx=0;exitDy=0;" edge="1" parent="1" source="OFR8qNW4da_diQQjfglN-9" target="OFR8qNW4da_diQQjfglN-17">
          <mxGeometry relative="1" as="geometry">
            <Array as="points">
              <mxPoint x="320" y="-230" />
              <mxPoint x="790" y="-230" />
              <mxPoint x="790" y="350" />
            </Array>
          </mxGeometry>
        </mxCell>
        <mxCell id="OFR8qNW4da_diQQjfglN-30" value="SFTP&lt;div&gt;(SSH)&lt;/div&gt;" style="edgeStyle=orthogonalEdgeStyle;rounded=0;orthogonalLoop=1;jettySize=auto;html=1;fontSize=12;strokeColor=#fd8d3c;strokeWidth=2;" edge="1" parent="1" source="OFR8qNW4da_diQQjfglN-14" target="OFR8qNW4da_diQQjfglN-18">
          <mxGeometry relative="1" as="geometry">
            <Array as="points">
              <mxPoint x="-60" y="340" />
              <mxPoint x="-60" y="340" />
            </Array>
          </mxGeometry>
        </mxCell>
        <mxCell id="OFR8qNW4da_diQQjfglN-32" value="" style="rounded=1;whiteSpace=wrap;html=1;fillColor=#d5e8d4;strokeColor=#82b366;fontSize=14;opacity=30;" vertex="1" parent="1">
          <mxGeometry x="-560" y="-240" width="600" height="350" as="geometry" />
        </mxCell>
        <mxCell id="OFR8qNW4da_diQQjfglN-33" value="" style="edgeStyle=orthogonalEdgeStyle;rounded=0;orthogonalLoop=1;jettySize=auto;html=1;fontSize=12;" edge="1" parent="1" source="OFR8qNW4da_diQQjfglN-10" target="OFR8qNW4da_diQQjfglN-9">
          <mxGeometry relative="1" as="geometry">
            <mxPoint x="490" y="-180" as="sourcePoint" />
            <mxPoint x="330" y="10" as="targetPoint" />
          </mxGeometry>
        </mxCell>
        <mxCell id="OFR8qNW4da_diQQjfglN-9" value="Integration API&lt;div&gt;(Delphi + REST)&lt;/div&gt;&lt;div&gt;API для интеграции&lt;/div&gt;" style="rounded=1;whiteSpace=wrap;html=1;fillColor=#ffe6cc;strokeColor=#d79b00;fontSize=14;" vertex="1" parent="1">
          <mxGeometry x="230" y="-210" width="180" height="80" as="geometry" />
        </mxCell>
        <mxCell id="OFR8qNW4da_diQQjfglN-34" value="" style="rounded=1;whiteSpace=wrap;html=1;fillColor=#ffe6cc;strokeColor=#d79b00;fontSize=14;opacity=30;" vertex="1" parent="1">
          <mxGeometry x="190" y="-240" width="530" height="350" as="geometry" />
        </mxCell>
        <mxCell id="OFR8qNW4da_diQQjfglN-35" value="" style="rounded=1;whiteSpace=wrap;html=1;fillColor=#e1d5e7;strokeColor=#9673a6;fontSize=14;opacity=30;" vertex="1" parent="1">
          <mxGeometry x="210" y="280" width="450" height="160" as="geometry" />
        </mxCell>
        <mxCell id="OFR8qNW4da_diQQjfglN-36" value="" style="rounded=1;whiteSpace=wrap;html=1;fillColor=#f8cecc;strokeColor=#b85450;fontSize=14;opacity=30;" vertex="1" parent="1">
          <mxGeometry x="-570" y="280" width="600" height="300" as="geometry" />
        </mxCell>
      </root>
    </mxGraphModel>
  </diagram>
</mxfile>
